<?xml version="1.0" standalone="no"?>
<!DOCTYPE svg PUBLIC "-//W3C//DTD SVG 20010904//EN"
 "http://www.w3.org/TR/2001/REC-SVG-20010904/DTD/svg10.dtd">
<svg version="1.0" xmlns="http://www.w3.org/2000/svg"
 width="1024.000000pt" height="1024.000000pt" viewBox="0 0 1024.000000 1024.000000"
 preserveAspectRatio="xMidYMid meet">
<metadata>
Created by potrace 1.16, written by Peter Selinger 2001-2019
</metadata>
<g transform="translate(0.000000,1024.000000) scale(0.100000,-0.100000)"
fill="#000000" stroke="none">
<path d="M4725 9600 c-1137 -100 -2245 -666 -2986 -1526 -234 -271 -351 -436
-516 -722 -287 -499 -477 -1050 -557 -1617 -49 -347 -49 -873 0 -1220 80 -566
270 -1118 557 -1617 163 -283 284 -452 516 -722 194 -226 327 -352 611 -579
566 -454 1329 -790 2060 -906 262 -42 327 -46 715 -46 337 1 399 3 545 23 547
74 979 211 1500 474 340 172 602 352 950 654 221 191 533 550 711 815 432 646
701 1404 759 2143 13 166 13 576 0 742 -58 739 -327 1497 -759 2143 -178 265
-490 624 -711 815 -332 288 -608 480 -920 640 -523 267 -977 413 -1520 487
-127 17 -219 21 -505 24 -192 2 -395 -1 -450 -5z m835 -575 c575 -70 1082
-242 1573 -534 536 -320 1010 -792 1339 -1334 511 -843 685 -1847 488 -2817
-123 -607 -391 -1175 -788 -1674 -122 -154 -441 -474 -598 -598 -597 -477
-1256 -750 -2034 -844 -179 -22 -636 -25 -810 -5 -515 58 -949 185 -1385 405
-397 202 -723 442 -1045 773 -1024 1050 -1372 2579 -905 3981 321 965 1039
1792 1956 2252 476 239 949 369 1514 414 114 9 566 -3 695 -19z"/>
<path d="M4420 6756 c0 -1385 -1 -1466 -17 -1475 -21 -10 -238 -83 -408 -136
-118 -37 -195 -61 -450 -145 -71 -23 -137 -43 -145 -45 -13 -2 -15 -38 -18
-248 -1 -136 0 -247 3 -247 3 0 85 26 183 59 97 32 211 69 252 81 41 13 120
38 175 57 55 19 120 41 145 48 96 29 177 55 219 70 25 9 48 12 53 7 5 -5 7
-78 6 -163 l-3 -154 -170 -57 c-93 -32 -183 -60 -200 -64 -16 -3 -43 -12 -60
-19 -16 -7 -84 -30 -150 -50 -176 -54 -307 -96 -330 -105 -29 -12 -98 -34
-110 -35 -6 0 -11 -90 -13 -242 -2 -236 -2 -243 17 -243 11 0 93 24 183 54 90
29 278 90 418 135 140 46 287 94 327 107 39 13 76 24 82 24 8 0 11 -280 11
-965 l0 -965 370 0 c204 0 414 5 468 11 579 62 1054 449 1341 1089 28 63 56
123 61 132 6 10 10 23 10 29 0 6 6 25 14 42 18 40 62 169 75 222 5 22 22 81
36 130 15 50 28 97 30 105 26 113 55 264 55 283 0 13 3 27 7 31 4 3 8 14 9 24
1 9 9 73 19 142 9 69 21 161 26 205 10 84 25 795 17 795 -2 0 -49 -15 -104
-34 -54 -18 -153 -50 -219 -70 -66 -21 -129 -41 -140 -45 -23 -10 -268 -86
-305 -96 -14 -3 -34 -10 -45 -15 -11 -5 -94 -32 -185 -60 -91 -28 -174 -55
-185 -60 -11 -5 -101 -34 -200 -65 -306 -97 -459 -146 -483 -156 -53 -21 -53
-22 -50 153 l3 162 123 41 c67 23 122 40 122 39 0 -2 20 5 45 16 25 11 46 19
48 18 3 -1 221 67 387 122 80 27 233 76 340 110 107 33 211 67 230 75 19 8 46
17 60 20 14 3 34 10 45 15 11 5 88 29 170 55 83 26 194 61 248 78 l97 31 -1
271 c0 271 -12 431 -44 615 -18 101 -19 106 -27 130 -3 8 -18 62 -32 120 -34
136 -32 127 -54 190 -75 207 -184 428 -271 550 -107 148 -261 312 -364 385
-156 113 -286 186 -399 225 -35 12 -72 26 -83 30 -42 18 -145 44 -260 65 -112
22 -148 23 -562 24 l-443 2 0 -1465z m855 1063 c347 -52 570 -159 784 -379
214 -220 391 -595 460 -975 46 -255 62 -424 46 -476 -6 -18 -145 -66 -680
-236 -60 -19 -148 -47 -195 -62 -47 -16 -119 -38 -160 -51 -41 -12 -88 -28
-105 -35 -16 -7 -64 -23 -105 -35 -41 -12 -119 -36 -173 -54 -53 -18 -99 -30
-102 -28 -8 9 -6 2338 3 2346 8 9 118 1 227 -15z m1279 -3168 c5 -7 -28 -328
-40 -386 -2 -11 -7 -40 -10 -65 -23 -165 -123 -544 -191 -720 -54 -139 -165
-369 -202 -420 -14 -19 -32 -46 -40 -60 -27 -48 -162 -209 -219 -261 -147
-135 -318 -228 -501 -273 -64 -16 -215 -35 -278 -36 l-33 0 0 875 0 874 42 11
c22 7 100 31 172 55 119 39 247 80 516 166 52 17 104 34 115 39 11 5 34 11 50
15 17 4 44 13 60 20 17 7 46 18 65 23 64 19 365 114 385 122 67 28 101 34 109
21z"/>
</g>
</svg>
